<svg xmlns="http://www.w3.org/2000/svg" xmlns:xlink="http://www.w3.org/1999/xlink" viewBox="0 0 241 141.9"><defs>
<style>
    @font-face {
      font-family: Megrim;
      src: url('../fonts/Megrim.ttf');
    }
.cls-1{fill:none;}.cls-2{clip-path:url(#clip-path);}.cls-3{fill:#fff;}.cls-4{clip-path:url(#clip-path-2);}.cls-5{clip-path:url(#clip-path-3);}.cls-6{fill:#0c6467;}.cls-7{fill:#44d9e6;}.cls-8{font-size:24.64px;}.cls-10,.cls-8,.cls-9{font-family:Megrim, Megrim;}.cls-9{font-size:22.37px;}.cls-10{font-size:12.49px;}</style>



<clipPath id="clip-path"><rect class="cls-1" width="241" height="148.65"/></clipPath><clipPath id="clip-path-2"><rect class="cls-1" width="241" height="141.9"/></clipPath><clipPath id="clip-path-3"><rect class="cls-1" x="60.41" width="125.38" height="117.28"/></clipPath></defs><title>Ativo 2</title><g id="Camada_2" data-name="Camada 2"><g id="Camada_1-2" data-name="Camada 1"><g class="cls-2"><rect class="cls-3" width="241" height="141.9"/></g><g class="cls-4"><rect class="cls-3" width="241" height="141.9"/></g><g class="cls-5"><path class="cls-6" d="M165.74,54.58a1.44,1.44,0,0,0-1-.43,1.78,1.78,0,0,1-.17-3.56,1.48,1.48,0,0,0,1-.53,1.46,1.46,0,0,0,.3-1.08c-.12-.9-.27-1.78-.43-2.64a1.43,1.43,0,0,0-1.73-1.12,2,2,0,0,1-.41.05A1.77,1.77,0,0,1,161.54,44l0-.08v0a1.78,1.78,0,0,1,1.19-2.18,1.44,1.44,0,0,0,.84-.73,1.41,1.41,0,0,0,.07-1.12c-.29-.81-.62-1.62-1-2.48a1.42,1.42,0,0,0-.81-.77,1.45,1.45,0,0,0-1.12,0,1.33,1.33,0,0,1-.3.12,1.84,1.84,0,0,1-.47.07,1.8,1.8,0,0,1-1.59-1,1.77,1.77,0,0,1,.69-2.37,1.44,1.44,0,0,0,.49-2c-.47-.75-1-1.49-1.5-2.22a1.47,1.47,0,0,0-1-.58A1.44,1.44,0,0,0,156,29a1.77,1.77,0,0,1-2.47-.25,1.78,1.78,0,0,1,.16-2.47,1.45,1.45,0,0,0,.46-1,1.39,1.39,0,0,0-.42-1c-.63-.65-1.29-1.27-1.94-1.84a1.43,1.43,0,0,0-1.06-.36,1.41,1.41,0,0,0-1,.52,1.8,1.8,0,0,1-.9.59,1.84,1.84,0,0,1-1.57-.3,1.79,1.79,0,0,1-.38-2.45,1.41,1.41,0,0,0,.24-1.09,1.46,1.46,0,0,0-.63-.93c-.76-.49-1.53-.95-2.29-1.38a1.42,1.42,0,0,0-1.12-.12,1.45,1.45,0,0,0-.86.71,1.77,1.77,0,0,1-1.11.91,1.74,1.74,0,0,1-1.23-.1,1.78,1.78,0,0,1-.89-2.31,1.43,1.43,0,0,0-.82-1.89c-.85-.31-1.7-.6-2.54-.86a1.43,1.43,0,0,0-1.8,1,1.8,1.8,0,0,1-1.24,1.27,1.83,1.83,0,0,1-.87,0,1.78,1.78,0,0,1-1.37-2.06,1.41,1.41,0,0,0-.25-1.09,1.37,1.37,0,0,0-1-.58c-.89-.13-1.79-.23-2.65-.3a1.42,1.42,0,0,0-1.06.36,1.39,1.39,0,0,0-.48,1,1.77,1.77,0,0,1-1.79,1.72,1.79,1.79,0,0,1-1.79-1.72,1.42,1.42,0,0,0-.47-1,1.46,1.46,0,0,0-1.07-.36c-.89.07-1.78.17-2.65.29a1.44,1.44,0,0,0-1.21,1.68,1.77,1.77,0,0,1-1.28,2l-.09,0a2.58,2.58,0,0,1-.39,0,1.77,1.77,0,0,1-1.72-1.34,1.43,1.43,0,0,0-1.8-1c-.84.25-1.69.54-2.54.85a1.46,1.46,0,0,0-.81.77,1.41,1.41,0,0,0,0,1.12,1.78,1.78,0,0,1-.91,2.31l-.27.1a1.84,1.84,0,0,1-.47.06,1.78,1.78,0,0,1-1.6-1,1.42,1.42,0,0,0-2-.6c-.81.46-1.58.92-2.29,1.38a1.39,1.39,0,0,0-.63.93,1.41,1.41,0,0,0,.23,1.09A1.79,1.79,0,0,1,99,22.77a1.61,1.61,0,0,1-.6.3,1.8,1.8,0,0,1-1.85-.59,1.42,1.42,0,0,0-2-.16c-.68.59-1.33,1.21-2,1.84a1.41,1.41,0,0,0-.42,1,1.45,1.45,0,0,0,.46,1,1.79,1.79,0,0,1-.72,3,1.79,1.79,0,0,1-1.58-.32,1.41,1.41,0,0,0-1.08-.29,1.4,1.4,0,0,0-1,.57c-.53.74-1,1.48-1.51,2.22a1.43,1.43,0,0,0,.49,2,1.78,1.78,0,0,1,.68,2.38,1.75,1.75,0,0,1-1.1.89,1.78,1.78,0,0,1-1.26-.12,1.47,1.47,0,0,0-1.11-.05,1.44,1.44,0,0,0-.82.77c-.36.83-.69,1.67-1,2.48a1.45,1.45,0,0,0,.06,1.12,1.41,1.41,0,0,0,.84.73,1.78,1.78,0,0,1-1,3.43,1.47,1.47,0,0,0-1.1.19,1.41,1.41,0,0,0-.63.93c-.18.88-.32,1.77-.44,2.64a1.44,1.44,0,0,0,.3,1.08,1.38,1.38,0,0,0,1,.53A1.79,1.79,0,0,1,82,54a1.9,1.9,0,0,1-.5.06h0a1.37,1.37,0,0,0-1,.43,1.41,1.41,0,0,0-.42,1q0,1.32.15,2.67a1.43,1.43,0,0,0,1.6,1.3,1.78,1.78,0,0,1,.7,3.49l-.08,0h-.05a1.44,1.44,0,0,0-.92.64,1.46,1.46,0,0,0-.18,1.1c.11.45.22.89.35,1.34s.24.83.36,1.24a1.43,1.43,0,0,0,.73.85,1.41,1.41,0,0,0,1.12.07,2,2,0,0,1,.59-.1,1.79,1.79,0,0,1,.72,3.42,1.41,1.41,0,0,0-.77.82,1.45,1.45,0,0,0,.06,1.12c.39.8.81,1.6,1.25,2.37a1.38,1.38,0,0,0,.89.67,1.44,1.44,0,0,0,1.11-.16,1.74,1.74,0,0,1,.94-.27,1.78,1.78,0,0,1,1.05,3.22,1.42,1.42,0,0,0-.27,2c.54.68,1.12,1.37,1.73,2a1.46,1.46,0,0,0,1,.47,1.51,1.51,0,0,0,1.05-.41,1.74,1.74,0,0,1,1.24-.51,1.8,1.8,0,0,1,1.23.49,1.77,1.77,0,0,1,.11,2.47A1.45,1.45,0,0,0,95.41,87a1.38,1.38,0,0,0,.53,1c.66.54,1.38,1.09,2.13,1.62a1.43,1.43,0,0,0,2-.38,1.8,1.8,0,0,1,1.5-.81A1.79,1.79,0,0,1,103.15,91a1.44,1.44,0,0,0,.6,2c.77.38,1.58.76,2.43,1.12a1.37,1.37,0,0,0,1.12,0,1.43,1.43,0,0,0,.78-.8,1.79,1.79,0,0,1,1.67-1.15,1.69,1.69,0,0,1,.58.1,1.78,1.78,0,0,1,1.13,2.2,1.42,1.42,0,0,0,1,1.79c.84.21,1.71.41,2.61.58a1.44,1.44,0,0,0,1.1-.24,1.48,1.48,0,0,0,.59-1,1.79,1.79,0,0,1,1.91-1.52h0a1.78,1.78,0,0,1,1.58,1.9,1.42,1.42,0,0,0,1.38,1.53c.44,0,.88,0,1.32,0s.91,0,1.36,0a1.44,1.44,0,0,0,1-.47,1.42,1.42,0,0,0,.36-1.06,1.77,1.77,0,0,1,1.59-1.89,1.8,1.8,0,0,1,2,1.51,1.42,1.42,0,0,0,1.68,1.2c.9-.17,1.78-.36,2.61-.57a1.43,1.43,0,0,0,1-1.79,1.78,1.78,0,0,1,1.15-2.2A1.79,1.79,0,0,1,138,93.38a1.37,1.37,0,0,0,.77.81,1.45,1.45,0,0,0,1.12,0q1.22-.51,2.43-1.11a1.44,1.44,0,0,0,.62-2,1.78,1.78,0,0,1,.65-2.39,1.8,1.8,0,0,1,.91-.25,1.77,1.77,0,0,1,1.5.81,1.4,1.4,0,0,0,.93.62,1.44,1.44,0,0,0,1.1-.24c.71-.51,1.43-1,2.13-1.61a1.46,1.46,0,0,0,.53-1,1.48,1.48,0,0,0-.35-1.07,1.76,1.76,0,0,1,.12-2.47,1.73,1.73,0,0,1,1.22-.49,1.76,1.76,0,0,1,1.25.51,1.46,1.46,0,0,0,1,.41,1.42,1.42,0,0,0,1-.47c.6-.65,1.18-1.34,1.74-2a1.42,1.42,0,0,0-.27-2,1.78,1.78,0,0,1,1.06-3.22,1.8,1.8,0,0,1,.95.27,1.42,1.42,0,0,0,2-.5c.43-.75.85-1.55,1.25-2.36a1.41,1.41,0,0,0,.07-1.12,1.44,1.44,0,0,0-.77-.82,1.79,1.79,0,0,1,.73-3.42,1.83,1.83,0,0,1,.61.11,1.44,1.44,0,0,0,1.84-.92c.26-.83.51-1.7.72-2.57a1.42,1.42,0,0,0-1.1-1.75,1.78,1.78,0,0,1-1.4-2,1.8,1.8,0,0,1,2-1.48,1.44,1.44,0,0,0,1.08-.3,1.48,1.48,0,0,0,.53-1c.08-.88.12-1.78.15-2.67a1.4,1.4,0,0,0-.43-1M89,45.85a35.81,35.81,0,0,1,3.48-8.62,3,3,0,1,1,5.29,3,29,29,0,0,0-2.87,7.14,3,3,0,0,1-3,2.29,2.76,2.76,0,0,1-.75-.1A3,3,0,0,1,89,45.85Zm8,27.69a3.06,3.06,0,0,1-4.17-1.07A35.5,35.5,0,0,1,89.19,64v0A3,3,0,1,1,95,62.26h0v0a29.19,29.19,0,0,0,3,7.06A3,3,0,0,1,97,73.54Zm31-50.86a3,3,0,0,1,3.7-2.19A35.45,35.45,0,0,1,140.35,24a3,3,0,1,1-3,5.29,29.18,29.18,0,0,0-7.13-2.87,3,3,0,0,1-2.2-3.7ZM105.1,24.32a35,35,0,0,1,8.54-3.63,3,3,0,0,1,1.71,5.83l-.07,0a29.94,29.94,0,0,0-7.08,3,3,3,0,0,1-1.54.43,3,3,0,0,1-1.56-5.66Zm13,62.08a3.05,3.05,0,0,1-3,2.28,3.2,3.2,0,0,1-.75-.09,34.93,34.93,0,0,1-8.63-3.48,3,3,0,1,1,3-5.29,29.12,29.12,0,0,0,7.14,2.88,3,3,0,0,1,2.19,3.7ZM141,84.77a35.34,35.34,0,0,1-8.53,3.63h0a3.38,3.38,0,0,1-.83.11,3.06,3.06,0,0,1-2.92-2.2,3,3,0,0,1,2.07-3.76l.07,0a29.19,29.19,0,0,0,7.06-3,3,3,0,0,1,3.1,5.23Zm-12.18-9.51a21.5,21.5,0,1,1,15-26.47,21.5,21.5,0,0,1-15,26.47Zm20.3-39.74a3,3,0,0,1,4.17,1.07,34.86,34.86,0,0,1,3.64,8.56v0a3,3,0,0,1-2.09,3.75,2.92,2.92,0,0,1-.83.12,3.05,3.05,0,0,1-2.93-2.22l0-.06a29,29,0,0,0-3-7.09,3,3,0,0,1,1.06-4.17Zm8,27.73a35.51,35.51,0,0,1-3.49,8.63,3,3,0,0,1-5.29-3,29.07,29.07,0,0,0,2.89-7.14,3,3,0,1,1,5.89,1.51Z"/><path class="cls-7" d="M143.32,48.92a21,21,0,1,0-14.65,25.89,21,21,0,0,0,14.65-25.89m-15.51,22.8a17.83,17.83,0,1,1,12.41-21.95,17.83,17.83,0,0,1-12.41,21.95Z"/><path class="cls-7" d="M165.74,54.58a1.44,1.44,0,0,0-1-.43,1.78,1.78,0,0,1-.17-3.56A1.43,1.43,0,0,0,165.82,49c-.12-.9-.26-1.78-.43-2.64a1.42,1.42,0,0,0-1.73-1.12,1.92,1.92,0,0,1-.41.05A1.77,1.77,0,0,1,161.54,44l0-.08v0a1.78,1.78,0,0,1,1.19-2.18,1.45,1.45,0,0,0,.91-1.85c-.29-.81-.62-1.62-1-2.48a1.42,1.42,0,0,0-.81-.77,1.45,1.45,0,0,0-1.12,0,1.33,1.33,0,0,1-.3.12,1.84,1.84,0,0,1-.47.07,1.79,1.79,0,0,1-.9-3.33,1.42,1.42,0,0,0,.67-.9,1.44,1.44,0,0,0-.18-1.11c-.47-.75-1-1.49-1.5-2.22a1.47,1.47,0,0,0-1-.58A1.44,1.44,0,0,0,156,29a1.84,1.84,0,0,1-.62.32,1.8,1.8,0,0,1-1.84-.57,1.77,1.77,0,0,1,.15-2.47,1.41,1.41,0,0,0,.46-1,1.39,1.39,0,0,0-.42-1c-.63-.65-1.29-1.27-1.94-1.84a1.43,1.43,0,0,0-1.06-.36,1.41,1.41,0,0,0-1,.52,1.78,1.78,0,0,1-2.46.29,1.77,1.77,0,0,1-.38-2.45,1.43,1.43,0,0,0-.4-2c-.76-.49-1.53-.95-2.29-1.38a1.41,1.41,0,0,0-1.12-.12,1.45,1.45,0,0,0-.86.71,1.77,1.77,0,0,1-1.11.91,1.74,1.74,0,0,1-1.23-.1,1.78,1.78,0,0,1-.89-2.31,1.41,1.41,0,0,0,0-1.12,1.46,1.46,0,0,0-.81-.77c-.85-.31-1.7-.6-2.54-.86a1.43,1.43,0,0,0-1.8,1,1.76,1.76,0,0,1-2.1,1.29,1.78,1.78,0,0,1-1.38-2.06,1.41,1.41,0,0,0-.25-1.09,1.37,1.37,0,0,0-.95-.58c-.9-.13-1.8-.23-2.66-.3a1.44,1.44,0,0,0-1.54,1.37,1.77,1.77,0,0,1-1.79,1.72,1.78,1.78,0,0,1-.53-.08V33a21.5,21.5,0,1,1,0,43V97.6H123c.46,0,.91,0,1.36,0a1.42,1.42,0,0,0,1.38-1.53,1.79,1.79,0,0,1,3.55-.38,1.42,1.42,0,0,0,1.68,1.2c.9-.17,1.78-.36,2.61-.57a1.43,1.43,0,0,0,1-1.79,1.79,1.79,0,0,1,1.15-2.2,1.84,1.84,0,0,1,.57-.09A1.82,1.82,0,0,1,138,93.38a1.4,1.4,0,0,0,.77.81,1.45,1.45,0,0,0,1.12,0c.81-.34,1.63-.71,2.43-1.11a1.45,1.45,0,0,0,.73-.86,1.39,1.39,0,0,0-.11-1.11,1.78,1.78,0,0,1,.65-2.39,1.83,1.83,0,0,1,.91-.25,1.77,1.77,0,0,1,1.5.81,1.44,1.44,0,0,0,2,.38c.71-.51,1.43-1,2.13-1.61a1.46,1.46,0,0,0,.53-1,1.48,1.48,0,0,0-.35-1.07,1.76,1.76,0,0,1,.12-2.47,1.73,1.73,0,0,1,1.22-.49,1.76,1.76,0,0,1,1.25.51,1.46,1.46,0,0,0,1,.41,1.4,1.4,0,0,0,1-.47c.6-.65,1.18-1.34,1.74-2a1.42,1.42,0,0,0-.27-2,1.78,1.78,0,0,1,1.06-3.22,1.8,1.8,0,0,1,.95.27,1.42,1.42,0,0,0,2-.5c.43-.75.85-1.55,1.25-2.36a1.41,1.41,0,0,0,.07-1.12,1.44,1.44,0,0,0-.77-.82,1.79,1.79,0,0,1,.74-3.42,1.81,1.81,0,0,1,.6.11,1.44,1.44,0,0,0,1.84-.92c.27-.83.51-1.7.73-2.57a1.49,1.49,0,0,0-.18-1.11,1.44,1.44,0,0,0-.92-.64,1.78,1.78,0,0,1,.58-3.52,1.44,1.44,0,0,0,1.08-.3,1.48,1.48,0,0,0,.53-1c.08-.88.13-1.78.15-2.67a1.4,1.4,0,0,0-.43-1M141.5,28.11a3,3,0,0,1-4.15,1.14,29.18,29.18,0,0,0-7.13-2.87,3,3,0,1,1,1.5-5.89A35.45,35.45,0,0,1,140.35,24a3,3,0,0,1,1.15,4.15ZM141,84.77a35.34,35.34,0,0,1-8.53,3.63h0a3.38,3.38,0,0,1-.83.11,3.06,3.06,0,0,1-2.92-2.2,3,3,0,0,1,2.07-3.76l.07,0a29.19,29.19,0,0,0,7.06-3,3,3,0,0,1,3.1,5.23Zm8.12-49.25a3,3,0,0,1,4.17,1.07,34.86,34.86,0,0,1,3.64,8.56v0a3,3,0,0,1-2.09,3.75,2.92,2.92,0,0,1-.83.12,3.05,3.05,0,0,1-2.93-2.22l0-.06a29,29,0,0,0-3-7.09,3,3,0,0,1,1.06-4.17Zm8,27.73a35.51,35.51,0,0,1-3.49,8.63,3,3,0,0,1-5.29-3,29.07,29.07,0,0,0,2.89-7.14,3,3,0,1,1,5.89,1.51Z"/><path class="cls-6" d="M143.32,48.92A21,21,0,0,0,122.6,33.51v3.21a17.83,17.83,0,0,1,5.21,35,17.64,17.64,0,0,1-5.21.64v3.22a21.07,21.07,0,0,0,20.72-26.66"/></g><g class="cls-4"><text class="cls-8" transform="translate(109.3 61.38)">E</text><text class="cls-8" transform="translate(123.5 61.38)">A</text><text class="cls-9" transform="translate(73.53 117.44)">E</text><text class="cls-9" transform="translate(86.41 117.44)">N</text><text class="cls-9" transform="translate(100.66 117.44)">T</text><text class="cls-9" transform="translate(112.52 117.44)">R</text><text class="cls-9" transform="translate(124.82 117.44)">O</text><text class="cls-9" transform="translate(138.69 117.44)">P</text><text class="cls-9" transform="translate(150.46 117.44)">I</text><text class="cls-9" transform="translate(155.56 117.44)">A</text><text class="cls-10" transform="translate(88.58 134.44)">E</text><text class="cls-10" transform="translate(95.78 134.44)">N</text><text class="cls-10" transform="translate(103.74 134.44)">G</text><text class="cls-10" transform="translate(111.42 134.44)">E</text><text class="cls-10" transform="translate(118.62 134.44)">N</text><text class="cls-10" transform="translate(126.58 134.44)">H</text><text class="cls-10" transform="translate(134.3 134.44)">A</text><text class="cls-10" transform="translate(141.12 134.44)">R</text><text class="cls-10" transform="translate(148 134.44)">I</text><text class="cls-10" transform="translate(150.84 134.44)">A</text></g></g></g></svg>