<?xml version="1.0" standalone="no"?>
<!DOCTYPE svg PUBLIC "-//W3C//DTD SVG 20010904//EN"
 "http://www.w3.org/TR/2001/REC-SVG-20010904/DTD/svg10.dtd">
<svg version="1.0" xmlns="http://www.w3.org/2000/svg"
 width="600.000000pt" height="600.000000pt" viewBox="0 0 600.000000 600.000000"
 preserveAspectRatio="xMidYMid meet">

<g transform="translate(0.000000,600.000000) scale(0.100000,-0.100000)"
fill="#000000" stroke="none">
<path d="M2895 5039 c-56 -9 -75 -28 -75 -74 0 -37 -32 -75 -63 -75 -27 0 -67
26 -67 44 0 7 -9 21 -20 31 -23 21 -65 17 -135 -14 l-45 -20 2 -57 c2 -48 -1
-59 -21 -75 -35 -28 -66 -23 -105 16 -20 19 -41 35 -47 35 -16 0 -114 -57
-130 -76 -10 -12 -10 -25 0 -64 14 -54 6 -81 -30 -100 -23 -13 -53 -5 -90 22
-34 25 -55 19 -113 -36 -46 -42 -61 -86 -35 -101 5 -4 14 -18 20 -32 24 -64
-34 -115 -101 -87 -19 8 -44 13 -55 10 -21 -6 -95 -109 -95 -133 0 -7 14 -27
30 -45 36 -37 39 -79 9 -109 -16 -16 -30 -19 -76 -17 l-56 3 -23 -45 c-13 -25
-26 -60 -30 -79 -6 -30 -3 -38 22 -58 16 -13 35 -28 42 -34 6 -5 12 -25 12
-44 0 -42 -29 -65 -82 -65 -49 0 -67 -27 -74 -111 -7 -71 -3 -79 51 -96 44
-14 62 -51 46 -92 -9 -20 -23 -33 -40 -37 -39 -8 -69 -25 -76 -42 -9 -25 7
-143 22 -158 8 -8 29 -14 47 -14 81 0 97 -104 21 -136 -44 -18 -51 -44 -31
-120 18 -70 37 -87 88 -79 31 6 41 3 63 -19 39 -39 30 -87 -22 -115 -32 -17
-30 -60 7 -125 32 -56 51 -68 85 -55 57 22 115 -5 115 -55 0 -14 -11 -38 -25
-54 -37 -44 -32 -67 30 -130 l54 -57 40 23 c49 27 75 28 101 2 24 -24 26 -72
5 -104 -10 -15 -13 -31 -8 -44 9 -22 109 -102 128 -102 7 0 29 14 50 30 46 36
68 38 100 5 27 -26 31 -54 15 -86 -17 -31 6 -58 76 -91 61 -29 66 -29 89 -14
14 9 25 21 25 26 0 18 32 40 58 40 50 0 72 -25 72 -80 0 -59 17 -74 99 -90 64
-12 85 -3 105 45 19 44 56 63 91 47 25 -12 39 -35 49 -83 6 -28 55 -57 75 -44
8 4 11 137 11 414 l0 408 -67 6 c-180 17 -352 97 -485 225 -106 102 -170 201
-217 337 -31 90 -35 113 -39 230 -4 150 9 231 59 350 90 217 264 382 489 462
47 17 108 33 135 37 28 4 67 9 88 12 l37 6 0 349 c0 336 -1 349 -20 359 -10 6
-25 29 -32 51 -8 27 -20 44 -36 50 -26 10 -27 10 -97 -2z m-49 -373 c28 -28
34 -41 34 -78 0 -72 -26 -96 -151 -139 -35 -12 -103 -41 -151 -65 -96 -48
-112 -51 -163 -30 -60 25 -83 89 -55 155 16 40 84 82 228 141 152 63 207 67
258 16z m-758 -562 c28 -19 52 -65 52 -99 0 -14 -15 -56 -34 -94 -19 -37 -51
-114 -71 -171 -40 -118 -53 -136 -105 -151 -70 -21 -150 40 -150 116 0 82 133
379 180 402 35 18 101 16 128 -3z m-116 -937 c21 -14 37 -45 84 -167 20 -52
50 -119 66 -148 25 -45 30 -61 25 -99 -7 -68 -42 -98 -111 -98 -44 0 -59 5
-81 25 -55 51 -165 314 -165 393 0 91 102 144 182 94z m626 -767 c45 -22 119
-52 164 -66 106 -34 141 -65 142 -127 1 -58 -27 -97 -82 -115 -38 -13 -47 -11
-149 23 -141 48 -248 101 -278 137 -19 22 -25 41 -25 75 0 38 5 50 34 79 47
47 88 46 194 -6z"/>
<path d="M3080 4145 l0 -65 53 0 c104 0 249 -49 352 -120 61 -42 156 -142 194
-204 86 -142 119 -327 87 -485 -62 -304 -307 -526 -614 -556 l-72 -8 0 -58 0
-59 53 0 c61 0 157 21 242 52 191 70 355 221 445 410 52 110 70 182 77 308 15
281 -120 551 -351 704 -127 84 -246 126 -398 140 l-68 7 0 -66z"/>
<path d="M2660 3460 l0 -330 195 0 c167 0 195 2 195 15 0 13 -27 15 -180 15
l-180 0 0 303 0 302 157 -3 157 -3 -140 -140 -139 -139 138 0 c85 0 137 4 137
10 0 6 -4 11 -10 11 -5 1 -14 3 -20 4 -5 1 -47 3 -92 4 l-83 1 140 140 140
140 -208 0 -207 0 0 -330z"/>
<path d="M3250 3464 c-63 -174 -117 -321 -119 -326 -2 -6 4 -8 14 -6 12 2 44
79 117 278 54 151 103 278 106 282 4 4 50 -110 102 -254 52 -143 97 -264 98
-269 2 -5 -75 -9 -172 -9 -150 0 -176 -2 -176 -15 0 -13 28 -15 196 -15 153 0
195 3 191 13 -2 6 -55 153 -117 325 -62 171 -116 312 -119 312 -3 0 -58 -143
-121 -316z"/>
<path d="M3330 1568 c-34 -17 -51 -35 -69 -72 -23 -44 -26 -65 -29 -181 -6
-177 7 -237 62 -291 46 -46 96 -61 171 -50 61 10 106 43 135 101 21 43 25 67
28 175 5 135 -11 228 -45 275 -46 64 -170 85 -253 43z m201 -31 c56 -37 70
-93 66 -272 -2 -120 -6 -157 -20 -185 -28 -54 -62 -74 -137 -78 -77 -4 -125
16 -152 64 -25 42 -41 189 -33 289 13 154 57 205 176 205 52 0 73 -5 100 -23z"/>
<path d="M1280 1578 c-1 -2 -1 -136 -1 -298 l-1 -295 176 -3 c152 -2 176 0
176 13 0 13 -24 15 -165 15 l-165 0 0 275 0 275 147 0 148 0 -128 -128 c-70
-70 -127 -130 -127 -133 0 -3 54 -7 120 -8 102 -2 120 0 120 14 0 12 -16 15
-92 15 l-93 0 130 130 130 130 -188 0 c-103 0 -187 -1 -187 -2z"/>
<path d="M1770 1281 c0 -259 2 -301 15 -301 13 0 15 39 17 272 l3 272 146
-254 147 -255 -129 -3 c-106 -2 -129 -5 -129 -17 0 -13 25 -15 155 -15 l155 0
0 300 c0 259 -2 300 -15 300 -13 0 -15 -39 -17 -272 l-3 -272 -155 269 c-97
169 -162 271 -172 273 -17 3 -18 -16 -18 -297z"/>
<path d="M2250 1570 c0 -5 44 -11 98 -12 l97 -3 3 -287 c1 -178 6 -288 12
-288 6 0 11 110 12 288 l3 287 103 3 c57 1 102 7 102 12 0 6 -84 10 -215 10
-131 0 -215 -4 -215 -10z"/>
<path d="M2777 1283 c2 -194 6 -299 13 -301 7 -3 10 92 10 289 l0 292 84 -6
c46 -3 99 -12 118 -20 99 -41 107 -172 14 -222 -20 -11 -36 -24 -36 -30 0 -5
22 -68 49 -140 l48 -130 -115 -5 c-80 -3 -117 -9 -120 -17 -3 -10 29 -13 136
-13 l139 0 -54 146 -53 146 44 42 c70 65 74 147 11 210 -41 41 -97 56 -207 56
l-83 0 2 -297z"/>
<path d="M3780 1280 c0 -260 2 -300 15 -300 13 0 15 39 15 290 l0 290 42 0
c84 0 167 -21 197 -50 62 -57 53 -135 -21 -189 -56 -42 -53 -61 4 -29 61 34
80 70 75 142 -3 53 -7 62 -39 92 -46 42 -91 54 -200 54 l-88 0 0 -300z"/>
<path d="M4230 1280 c0 -260 2 -300 15 -300 13 0 15 40 15 300 0 260 -2 300
-15 300 -13 0 -15 -40 -15 -300z"/>
<path d="M4468 1278 c-60 -165 -102 -295 -96 -297 15 -5 18 1 113 265 48 134
91 244 95 244 3 0 44 -104 91 -232 46 -127 86 -235 87 -240 2 -4 -66 -8 -152
-8 -132 0 -156 -2 -156 -15 0 -13 26 -15 175 -15 l175 0 -23 63 c-13 34 -62
167 -108 294 -46 128 -86 233 -89 233 -3 0 -53 -132 -112 -292z"/>
<path d="M1820 500 l0 -170 103 2 102 2 -97 3 -98 4 0 154 0 155 82 0 82 0
-69 -70 -69 -70 69 2 70 1 -53 6 -53 6 66 65 c36 35 65 68 65 72 0 4 -45 8
-100 8 l-100 0 0 -170z"/>
<path d="M2097 663 c-4 -3 -7 -80 -7 -170 0 -209 18 -221 22 -14 l3 149 78
-134 c42 -74 77 -138 77 -144 0 -5 -33 -11 -72 -13 l-73 -3 88 -2 87 -2 -2
173 -2 172 -6 -157 -5 -157 -89 155 c-48 85 -89 154 -90 154 -2 0 -6 -3 -9 -7z"/>
<path d="M2429 642 c-30 -27 -32 -34 -37 -110 -9 -155 17 -202 111 -202 82 0
107 24 107 101 l0 59 -37 -1 c-37 -1 -37 -2 -8 -8 24 -5 31 -12 33 -35 6 -46
-6 -75 -38 -91 -44 -23 -97 -19 -124 8 -45 46 -46 213 -1 265 20 23 31 27 71
26 39 -1 52 -6 71 -29 13 -15 27 -25 30 -22 3 4 -8 20 -25 37 -42 42 -107 43
-153 2z"/>
<path d="M2695 649 c-4 -11 -5 -87 -3 -170 l3 -149 105 2 105 2 -97 3 -98 4 0
154 0 155 80 0 81 0 -72 -69 c-70 -68 -71 -68 -43 -72 16 -2 49 -1 74 2 l45 6
-52 1 c-29 1 -53 5 -53 10 0 4 30 34 65 67 36 32 65 63 65 67 0 4 -45 8 -99 8
-92 0 -100 -2 -106 -21z"/>
<path d="M2977 663 c-4 -3 -7 -80 -7 -170 0 -209 18 -221 22 -14 l3 149 78
-134 c42 -74 77 -138 77 -144 0 -5 -33 -11 -72 -13 l-73 -3 88 -2 87 -2 -2
173 -2 172 -6 -157 -5 -157 -89 155 c-48 85 -89 154 -90 154 -2 0 -6 -3 -9 -7z"/>
<path d="M3284 500 c0 -96 2 -135 3 -87 l4 88 86 -3 85 -3 1 -82 c0 -46 4 -83
8 -83 5 0 9 77 9 171 0 118 -3 168 -11 164 -6 -4 -10 -32 -9 -64 3 -99 10 -91
-85 -91 l-84 0 -4 83 c-1 45 -3 3 -3 -93z"/>
<path d="M3842 498 l2 -173 3 164 4 163 61 -4 c48 -4 65 -9 79 -27 27 -34 24
-65 -11 -95 l-30 -25 25 -67 c14 -36 25 -72 25 -80 0 -9 -19 -14 -62 -17 -63
-3 -63 -3 14 -5 l77 -2 -30 81 -30 81 26 24 c30 28 34 81 8 113 -19 23 -75 40
-130 41 l-33 0 2 -172z"/>
<path d="M4104 500 c0 -96 2 -136 3 -87 2 48 2 126 0 175 -1 48 -3 8 -3 -88z"/>
<path d="M3601 507 c-69 -192 -66 -184 -54 -172 6 6 32 70 58 143 27 72 51
132 55 132 3 0 13 -21 22 -47 9 -27 30 -86 47 -133 17 -47 31 -86 31 -87 0 -1
-42 -4 -92 -6 l-93 -3 104 -2 c95 -2 103 -1 96 16 -4 9 -29 80 -57 157 -28 77
-53 143 -57 147 -3 4 -30 -62 -60 -145z"/>
<path d="M4285 643 c-4 -10 -17 -47 -30 -83 -13 -36 -37 -102 -54 -147 -17
-46 -27 -83 -22 -83 4 0 29 60 56 133 26 72 50 138 54 145 6 10 102 -237 101
-260 0 -4 -38 -6 -85 -5 -47 1 -85 -1 -85 -5 0 -5 43 -8 95 -8 52 0 95 4 95 9
0 9 -109 314 -115 319 -1 2 -6 -5 -10 -15z"/>
</g>
</svg>
